<svg xmlns="http://www.w3.org/2000/svg" width="900" height="260" viewBox="0 0 900 260">
<rect width="100%" height="100%" fill="#ffffff"/>
<text x="48" y="18" font-size="14" font-family="Arial, sans-serif">002602 世纪华通 5年日K收盘走势  2023-09-27 至 2026-05-29  区间涨跌 200.0%</text>
<line x1="48" y1="24" x2="48" y2="226" stroke="#d0d7de"/>
<line x1="48" y1="226" x2="882" y2="226" stroke="#d0d7de"/>
<text x="4" y="29" font-size="11" font-family="Arial, sans-serif">21.91</text>
<text x="4" y="226" font-size="11" font-family="Arial, sans-serif">2.97</text>
<polyline points="48.00,205.84 49.31,206.80 50.61,205.52 51.92,204.35 53.22,203.92 54.53,202.54 55.83,203.50 57.14,202.96 58.44,203.71 59.75,203.60 61.05,203.60 62.36,204.46 63.66,205.31 64.97,204.03 66.27,199.55 67.58,199.66 68.88,197.95 70.19,195.39 71.49,195.82 72.80,196.88 74.10,198.16 75.41,197.20 76.71,195.60 78.02,193.36 79.32,193.68 80.63,194.11 81.93,194.43 83.24,194.96 84.54,193.90 85.85,195.28 87.15,195.92 88.46,195.71 89.77,195.50 91.07,196.14 92.38,196.67 93.68,196.56 94.99,198.16 96.29,199.12 97.60,199.44 98.90,199.23 100.21,198.80 101.51,196.78 102.82,197.42 104.12,199.12 105.43,197.52 106.73,197.20 108.04,197.52 109.34,196.88 110.65,198.48 111.95,198.59 113.26,198.91 114.56,198.38 115.87,199.02 117.17,197.95 118.48,198.91 119.78,197.10 121.09,203.18 122.39,204.78 123.70,204.88 125.00,205.42 126.31,204.56 127.62,203.28 128.92,203.82 130.23,202.86 131.53,203.71 132.84,204.78 134.14,205.95 135.45,206.16 136.75,207.44 138.06,203.07 139.36,204.67 140.67,204.24 141.97,202.96 143.28,204.46 144.58,204.35 145.89,204.35 147.19,208.19 148.50,206.38 149.80,206.70 151.11,205.42 152.41,205.74 153.72,207.76 155.02,210.22 156.33,213.52 157.63,212.46 158.94,214.37 160.24,217.68 161.55,214.48 162.85,214.48 164.16,212.56 165.46,209.68 166.77,210.11 168.08,210.00 169.38,208.94 170.69,208.19 171.99,207.87 173.30,205.74 174.60,208.08 175.91,206.16 177.21,205.42 178.52,204.67 179.82,205.84 181.13,206.38 182.43,207.55 183.74,207.02 185.04,206.80 186.35,206.80 187.65,201.68 188.96,203.82 190.26,204.46 191.57,202.32 192.87,202.75 194.18,202.64 195.48,201.36 196.79,202.43 198.09,205.10 199.40,206.06 200.70,208.94 202.01,207.55 203.31,207.98 204.62,206.48 205.92,204.24 207.23,205.10 208.54,206.91 209.84,206.38 211.15,208.08 212.45,207.98 213.76,208.83 215.06,210.22 216.37,213.84 217.67,212.03 218.98,212.35 220.28,213.63 221.59,214.59 222.89,214.69 224.20,214.59 225.50,216.08 226.81,214.69 228.11,211.39 229.42,208.40 230.72,208.40 232.03,208.62 233.33,210.75 234.64,209.58 235.94,209.04 237.25,212.78 238.55,212.24 239.86,213.41 241.16,212.67 242.47,213.20 243.77,214.91 245.08,214.80 246.38,215.01 247.69,216.08 249.00,216.19 250.30,215.12 251.61,216.08 252.91,215.01 254.22,215.44 255.52,215.55 256.83,216.51 258.13,216.51 259.44,217.36 260.74,218.43 262.05,219.17 263.35,219.17 264.66,218.75 265.96,219.17 267.27,219.17 268.57,219.81 269.88,219.07 271.18,219.60 272.49,220.88 273.79,221.41 275.10,222.69 276.40,223.33 277.71,221.31 279.01,221.95 280.32,221.73 281.62,221.63 282.93,221.41 284.23,221.73 285.54,222.48 286.85,222.37 288.15,223.76 289.46,223.55 290.76,223.44 292.07,222.16 293.37,222.27 294.68,223.23 295.98,223.01 297.29,223.76 298.59,224.19 299.90,224.29 301.20,224.40 302.51,225.15 303.81,226.00 305.12,225.79 306.42,224.93 307.73,224.61 309.03,224.61 310.34,223.33 311.64,223.44 312.95,224.19 314.25,224.51 315.56,223.87 316.86,223.97 318.17,223.97 319.47,224.72 320.78,225.15 322.08,225.04 323.39,224.93 324.69,223.97 326.00,224.19 327.31,223.76 328.61,224.19 329.92,224.61 331.22,226.00 332.53,225.89 333.83,225.57 335.14,225.25 336.44,225.15 337.75,224.19 339.05,223.44 340.36,223.01 341.66,223.33 342.97,223.44 344.27,222.27 345.58,222.69 346.88,223.44 348.19,223.23 349.49,223.01 350.80,223.55 352.10,223.97 353.41,224.93 354.71,223.44 356.02,223.97 357.32,223.97 358.63,222.69 359.93,221.73 361.24,220.13 362.54,217.89 363.85,213.84 365.15,209.68 366.46,213.95 367.77,214.37 369.07,217.25 370.38,216.51 371.68,216.83 372.99,214.16 374.29,214.91 375.60,214.37 376.90,212.67 378.21,213.31 379.51,214.05 380.82,214.48 382.12,213.41 383.43,212.99 384.73,208.40 386.04,206.59 387.34,207.98 388.65,207.55 389.95,205.42 391.26,205.31 392.56,203.60 393.87,206.38 395.17,208.94 396.48,211.39 397.78,213.73 399.09,211.71 400.39,214.05 401.70,213.52 403.00,213.95 404.31,212.56 405.62,213.10 406.92,212.78 408.23,212.14 409.53,211.92 410.84,211.60 412.14,211.28 413.45,211.50 414.75,211.92 416.06,213.31 417.36,214.27 418.67,213.63 419.97,213.41 421.28,212.46 422.58,212.56 423.89,212.03 425.19,210.11 426.50,209.90 427.80,208.30 429.11,209.58 430.41,207.98 431.72,205.42 433.02,205.84 434.33,206.70 435.63,207.44 436.94,205.95 438.24,203.92 439.55,204.35 440.85,203.50 442.16,203.50 443.46,205.95 444.77,208.40 446.08,207.55 447.38,205.95 448.69,206.06 449.99,206.38 451.30,208.08 452.60,208.51 453.91,206.27 455.21,206.27 456.52,206.38 457.82,205.52 459.13,205.10 460.43,205.31 461.74,205.63 463.04,206.80 464.35,206.27 465.65,204.56 466.96,203.28 468.26,203.39 469.57,201.68 470.87,198.80 472.18,199.34 473.48,196.46 474.79,196.24 476.09,194.43 477.40,191.23 478.70,193.36 480.01,190.16 481.31,186.97 482.62,183.45 483.92,182.91 485.23,183.13 486.54,186.01 487.84,189.63 489.15,192.30 490.45,191.12 491.76,187.93 493.06,185.90 494.37,185.47 495.67,185.37 496.98,184.19 498.28,186.43 499.59,185.15 500.89,184.30 502.20,182.06 503.50,179.39 504.81,180.25 506.11,182.17 507.42,183.34 508.72,186.97 510.03,184.09 511.33,184.19 512.64,184.83 513.94,184.83 515.25,186.33 516.55,189.74 517.86,188.78 519.16,186.75 520.47,186.01 521.77,189.63 523.08,193.04 524.38,195.07 525.69,191.87 527.00,189.20 528.30,187.61 529.61,184.51 530.91,185.79 532.22,185.05 533.52,184.62 534.83,182.49 536.13,183.98 537.44,186.86 538.74,185.15 540.05,183.77 541.35,183.13 542.66,179.39 543.96,179.07 545.27,175.23 546.57,175.23 547.88,172.99 549.18,172.99 550.49,172.89 551.79,175.77 553.10,172.78 554.40,172.67 555.71,170.43 557.01,168.83 558.32,166.49 559.62,166.06 560.93,168.94 562.23,167.55 563.54,163.82 564.85,162.12 566.15,158.17 567.46,159.13 568.76,160.41 570.07,160.73 571.37,156.78 572.68,156.46 573.98,158.17 575.29,163.18 576.59,161.37 577.90,157.53 579.20,157.00 580.51,157.00 581.81,151.98 583.12,147.40 584.42,145.26 585.73,146.33 587.03,145.16 588.34,147.08 589.64,146.97 590.95,147.82 592.25,150.60 593.56,145.80 594.86,140.14 596.17,139.29 597.47,135.67 598.78,135.99 600.08,131.40 601.39,127.67 602.69,122.33 604.00,116.25 605.31,123.40 606.61,128.63 607.92,122.12 609.22,119.56 610.53,126.49 611.83,132.79 613.14,139.08 614.44,133.11 615.75,126.81 617.05,121.27 618.36,121.05 619.66,124.57 620.97,128.09 622.27,125.85 623.58,122.33 624.88,122.76 626.19,120.84 627.49,114.01 628.80,106.76 630.10,109.00 631.41,105.48 632.71,107.72 634.02,111.35 635.32,111.14 636.63,108.36 637.93,111.88 639.24,114.97 640.54,113.48 641.85,117.32 643.15,115.19 644.46,108.04 645.77,109.96 647.07,109.64 648.38,106.12 649.68,105.06 650.99,100.58 652.29,92.68 653.60,92.04 654.90,87.67 656.21,81.49 657.51,90.34 658.82,81.91 660.12,73.06 661.43,63.99 662.73,57.17 664.04,60.58 665.34,54.18 666.65,43.94 667.95,48.00 669.26,46.61 670.56,52.48 671.87,57.06 673.17,47.04 674.48,38.61 675.78,35.20 677.09,24.00 678.39,28.16 679.70,32.96 681.00,37.44 682.31,35.41 683.62,43.94 684.92,46.29 686.23,49.92 687.53,54.08 688.84,53.76 690.14,63.99 691.45,73.59 692.75,64.31 694.06,54.61 695.36,50.24 696.67,47.57 697.97,58.13 699.28,68.15 700.58,63.99 701.89,73.59 703.19,70.93 704.50,61.54 705.80,59.20 707.11,64.63 708.41,67.09 709.72,63.25 711.02,70.50 712.33,60.90 713.63,53.86 714.94,64.95 716.24,82.66 717.55,83.73 718.85,79.35 720.16,75.62 721.46,82.02 722.77,78.82 724.08,65.91 725.38,63.67 726.69,65.38 727.99,66.45 729.30,60.16 730.60,65.59 731.91,75.94 733.21,73.70 734.52,78.82 735.82,78.71 737.13,76.05 738.43,70.93 739.74,76.69 741.04,74.87 742.35,83.94 743.65,83.41 744.96,79.89 746.26,79.67 747.57,72.95 748.87,72.74 750.18,72.10 751.48,76.90 752.79,73.49 754.09,75.73 755.40,71.03 756.70,71.99 758.01,76.37 759.31,61.54 760.62,62.07 761.92,63.03 763.23,55.04 764.54,47.36 765.84,51.62 767.15,48.64 768.45,52.48 769.76,46.82 771.06,50.88 772.37,45.01 773.67,40.32 774.98,45.01 776.28,42.98 777.59,50.13 778.89,55.57 780.20,56.21 781.50,58.98 782.81,57.17 784.11,47.57 785.42,46.61 786.72,40.96 788.03,50.02 789.33,51.20 790.64,47.14 791.94,52.69 793.25,55.25 794.55,53.12 795.86,54.08 797.16,53.44 798.47,56.42 799.77,58.24 801.08,60.58 802.38,61.97 803.69,70.82 805.00,72.74 806.30,73.27 807.61,64.95 808.91,63.99 810.22,69.43 811.52,69.22 812.83,74.02 814.13,77.75 815.44,79.14 816.74,78.93 818.05,76.26 819.35,76.58 820.66,80.74 821.96,85.75 823.27,92.47 824.57,87.88 825.88,84.26 827.18,86.93 828.49,83.09 829.79,89.38 831.10,88.10 832.40,74.98 833.71,77.33 835.01,76.58 836.32,73.27 837.62,70.29 838.93,78.93 840.23,78.07 841.54,85.01 842.85,84.69 844.15,79.46 845.46,73.59 846.76,74.87 848.07,78.39 849.37,78.93 850.68,78.71 851.98,81.91 853.29,83.73 854.59,80.21 855.90,74.45 857.20,70.82 858.51,87.56 859.81,87.67 861.12,86.07 862.42,88.10 863.73,95.35 865.03,95.78 866.34,97.59 867.64,104.74 868.95,99.40 870.25,99.30 871.56,101.32 872.86,101.22 874.17,104.74 875.47,104.63 876.78,107.19 878.08,98.34 879.39,100.26 880.69,100.58 882.00,102.18" fill="none" stroke="#0969da" stroke-width="2"/>
<text x="48" y="250" font-size="11" font-family="Arial, sans-serif">2023-09-27</text>
<text x="780" y="250" font-size="11" font-family="Arial, sans-serif">2026-05-29</text>
</svg>
